<svg t="1711258857273" class="icon" viewBox="0 0 1024 1024" version="1.1" xmlns="http://www.w3.org/2000/svg" p-id="5131" width="200" height="200"><path d="M952.78 76.8c-360.294 62.618-571.596 190.157-633.958 382.618a298.778 298.778 0 0 1 135.322 196.326c70.963-165.99 173.312-327.603 284.928-422.067-135.168 155.699-242.458 383.411-308.173 706.278 119.347 2.56 421.786-167.065 412.467-392.038C831.667 267.98 868.147 110.925 952.781 76.8M51.2 383.309c49.613 24.832 64.077 121.651 43.392 290.509C77.875 810.394 254.95 928.282 326.656 931.405c-24.115-199.552-78.618-343.22-153.446-444.467 93.977 93.184 168.396 275.02 189.107 417.408 140.928-257.434 37.197-431.104-311.168-521.012" p-id="5132"></path></svg>