<svg t="1711258662308" class="icon" viewBox="0 0 1024 1024" version="1.1" xmlns="http://www.w3.org/2000/svg" p-id="4829" width="200" height="200"><path d="M900.966 668.8c-22.886-22.886-52.812-35.2-82.713-35.2H679.168a70.605 70.605 0 0 1-70.4-70.4c0-15.846 5.3-29.926 12.34-42.24a83.456 83.456 0 0 1 17.586-17.587c8.807-5.3 15.847-10.573 22.887-17.613a232.986 232.986 0 0 0 86.246-181.274c0-72.166-31.693-139.033-88.013-183.04-28.16-22.886-59.827-36.966-93.286-45.772-33.434-8.781-70.4-8.781-105.6 0a232.909 232.909 0 0 0-179.507 190.08c-15.847 93.286 26.393 188.339 105.6 237.619 19.353 12.288 31.667 35.2 31.667 59.827a70.605 70.605 0 0 1-70.4 70.4H205.773C140.646 635.366 89.6 686.413 89.6 749.773v7.04c1.766 15.82 5.274 31.667 12.314 45.747 5.299 12.314 14.08 22.886 22.886 31.693a118.528 118.528 0 0 0 84.48 35.2h607.206A117.94 117.94 0 0 0 934.4 751.513c0-29.9-12.314-59.827-33.434-82.713zM828.8 985.6H195.2a35.302 35.302 0 0 1-35.2-35.2c0-19.354 15.846-35.2 35.2-35.2h633.6c19.354 0 35.2 15.846 35.2 35.2s-15.846 35.2-35.2 35.2z" p-id="4830"></path></svg>